Coordinates
version=1
nRows=19
nColumns=36
inDegrees=yes

Units are S.I. units (second, meters, Newtons, ...)
If the header above contains a line with 'inDegrees', this indicates whether rotational values are in degrees (yes) or radians (no).

endheader
time	pelvis_tilt	pelvis_list	pelvis_rotation	pelvis_tx	pelvis_ty	pelvis_tz	hip_flexion_r	hip_adduction_r	hip_rotation_r	knee_angle_r	knee_angle_r_beta	ankle_angle_r	subtalar_angle_r	mtp_angle_r	hip_flexion_l	hip_adduction_l	hip_rotation_l	knee_angle_l	knee_angle_l_beta	ankle_angle_l	subtalar_angle_l	mtp_angle_l	lumbar_extension	lumbar_bending	lumbar_rotation	arm_flex_r	arm_add_r	arm_rot_r	elbow_flex_r	pro_sup_r	arm_flex_l	arm_add_l	arm_rot_l	elbow_flex_l	pro_sup_l
      0.00000000	      5.96047613	     -0.96074137	     14.29492811	      0.76416250	      1.01860355	     -0.00158008	     21.47202375	      0.70708614	      5.08679599	     11.74107927	      0.20492049	     -3.47361593	    -14.19840354	     -6.25001640	     -8.02666496	      3.81177326	      7.67969078	      3.68854484	      0.06437725	     11.29866891	     -0.18786109	     -6.25001640	     -8.90288404	     -0.44708629	     -1.92402633	     24.57395773	      9.33547337	     57.21573665	    119.97820863	     87.27368420	     43.83970265	      8.73720926	     66.74105599	    123.10565441	     77.77867639
      0.01666670	      5.65717411	     -1.63888344	     14.94745966	      0.76576775	      1.01531671	     -0.00184957	     21.38089331	      0.96352492	      6.95838253	      7.63525428	      0.13326033	     -1.95881726	     -8.61284114	     -6.41130626	     -7.05301684	      3.19142341	      9.45263237	      5.05791372	      0.08827725	     11.03616755	     -2.27963949	     -6.41130626	     -8.34359754	      0.08698921	     -1.90371924	     26.55440021	      5.23333595	     64.83512358	    124.53005282	    103.29018014	     43.84356804	      7.46276531	     62.48486277	    127.71924263	    101.47089977
      0.03333330	      4.15114069	     -1.05998508	     14.92370440	      0.76343114	      1.01625982	     -0.00383521	     22.08868192	     -0.36362413	      5.38219301	      4.27177591	      0.07455655	     -1.54175968	     -4.85052223	     -6.47473730	     -5.11158654	      4.45340737	      8.68824276	      5.75328058	      0.10041369	     11.32621418	     -2.71778844	     -6.47473730	     -6.32268704	     -0.63849418	     -3.25879737	     26.20741816	      6.66293064	     65.05230041	    123.39519649	    104.69636859	     43.31814448	      4.82642826	     62.81250267	    129.45589236	    103.71971498
      0.05000000	      4.53694938	     -1.18107531	     15.34035152	      0.76262487	      1.01525162	     -0.00428783	     21.56079802	     -0.54202869	      4.62118966	      3.87786506	      0.06768151	      0.87036358	     -2.37232988	     -6.80128666	     -4.85125979	      4.28468956	      9.08621040	      6.11154100	      0.10666651	     12.79974175	     -1.36761377	     -6.80128666	     -6.30311055	     -0.08734328	     -5.00506381	     27.30477833	      7.79090327	     65.12356032	    121.67327952	    106.54755205	     44.10224136	      3.53702245	     61.96862827	    129.87660286	    107.12233780
      0.06666670	      5.08648678	     -1.46258575	     14.96407684	      0.76692155	      1.01631138	     -0.00089246	     21.49076806	      0.04705621	      4.47772827	      5.13479356	      0.08961905	      2.26579381	     -0.88194223	     -6.82303104	     -4.99983978	      3.94819663	      8.53705767	      6.37099012	      0.11119475	     13.72396589	     -0.62426777	     -6.82303104	     -6.60073775	      0.40010350	     -5.02918214	     27.61970956	      8.43155003	     65.16920101	    120.61508004	    106.22836846	     44.86120207	      3.18683766	     61.94124701	    129.93138283	    106.72849520
      0.08333330	      5.63729031	     -1.76418228	     14.51798695	      0.76627128	      1.01508593	     -0.00060861	     21.74742216	      0.64631361	      4.38490692	      6.92414281	      0.12084909	      2.60268312	      0.05152799	     -6.93930608	     -5.16425202	      3.59739044	      8.23656103	      6.55093276	      0.11433535	     14.39631053	      0.07644268	     -6.93930608	     -6.98745763	      1.00046823	     -5.02625654	     28.18810943	      8.97325695	     65.64636739	    120.01199419	    103.93141188	     45.45952390	      2.99464730	     61.79289583	    129.99476216	    104.34356454
      0.10000000	      5.91792391	     -2.03471773	     13.96851358	      0.76577472	      1.01588594	     -0.00026834	     22.37929445	      1.13898189	      4.50678573	      8.70388075	      0.15191138	      2.24673003	      0.39881945	     -6.99466284	     -5.09464650	      3.32500987	      7.83328081	      6.80892524	      0.11883816	     14.71153739	      0.25305828	     -6.99466284	     -7.20438580	      1.52099129	     -4.94972200	     28.71659770	      9.48558483	     65.90667549	    119.64362872	    104.91044861	     45.83410043	      2.89593588	     61.39794825	    130.24176502	    105.39458157
      0.11666670	      6.21985734	     -2.00695274	     13.52076208	      0.76035355	      1.01569770	     -0.00295592	     23.01420072	      1.25076246	      4.71251461	     10.36778397	      0.18095197	      1.55489048	      0.63070780	     -7.00083631	     -5.05720546	      3.39204681	      7.49892578	      7.13886297	      0.12459666	     14.92834037	      0.37774483	     -7.00083631	     -7.70621312	      1.72146189	     -4.71120438	     29.44589003	      9.53900846	     65.88619218	    119.60248563	    104.82784292	     46.55310294	      3.01288860	     61.06863085	    129.85830920	    105.34986393
      0.13333330	      6.57719618	     -1.99748717	     13.13216191	      0.76472940	      1.01684213	      0.00027959	     23.35975618	      1.41952034	      4.94303945	     11.65533198	      0.20342392	      0.99017152	      0.68270100	     -7.00800262	     -5.19774285	      3.35013979	      7.02327320	      7.45416350	      0.13009970	     15.18906478	      0.50172666	     -7.00800262	     -8.16239927	      1.87765619	     -4.27941380	     29.74060988	      9.60375905	     65.86062893	    119.55252792	    104.65085552	     46.88683387	      2.84268236	     60.89622693	    129.76601601	    105.22571578
      0.15000000	      6.85380832	     -1.88454061	     12.83519881	      0.76419381	      1.01705570	      0.00040077	     23.58332436	      1.42738292	      5.24754818	     12.55301928	      0.21909152	      0.32435522	      0.66053491	     -7.08419599	     -5.35598475	      3.42217245	      6.68249743	      7.64449970	      0.13342169	     15.53518800	      0.94764140	     -7.08419599	     -8.50656747	      1.92948147	     -3.94168749	     29.94426519	      9.73304233	     65.90112978	    119.36422795	    102.88251002	     47.03518817	      2.65810750	     60.82298573	    129.90879714	    103.38878967
      0.16666670	      7.06821863	     -1.66921933	     12.67294079	      0.75893159	      1.01639869	     -0.00234638	     23.86444636	      1.22827774	      5.40682841	     13.33408978	      0.23272377	     -0.27157571	      0.77104448	     -7.08929620	     -5.36450185	      3.63670062	      6.53110405	      7.98240300	      0.13931921	     15.68182525	      0.96228373	     -7.08929620	     -8.96217645	      1.90296586	     -3.76437936	     30.51746545	      9.60399189	     65.74487172	    119.33872877	    102.83874182	     47.53327616	      2.67171876	     60.63060220	    129.89156804	    103.37821799
      0.18333330	      7.25792116	     -1.55273610	     12.63293552	      0.76333704	      1.01704090	      0.00031248	     23.90462637	      1.11130245	      5.46329203	     13.72812011	      0.23960090	     -0.72673760	      0.85725541	     -7.09061048	     -5.54252374	      3.70078649	      6.46662383	      8.09668300	      0.14131378	     15.88961122	      0.94173306	     -7.09061048	     -9.14172361	      1.91337140	     -3.59918075	     30.56375008	      9.64680983	     65.67457470	    119.30593588	    102.81558237	     47.49404016	      2.57658130	     60.60738831	    129.86401517	    103.36708549
      0.20000000	      7.66005847	     -1.33049476	     12.44554303	      0.76289202	      1.01736734	      0.00063616	     23.55546931	      1.06020564	      5.90725295	     13.93451433	      0.24320315	     -1.04352271	      0.67649566	     -7.16704343	     -5.97355322	      3.81081550	      6.07849500	      8.18525203	      0.14285960	     16.24275550	      1.34699602	     -7.16704343	     -9.58778189	      1.81375921	     -3.20385208	     30.78485579	      9.81865967	     65.53847271	    119.01628401	    100.17397644	     47.81047443	      2.68258415	     60.83982756	    129.97536500	    100.66830831
      0.21666670	      7.75858497	     -1.17484136	     12.34239868	      0.76238885	      1.01528783	      0.00051094	     23.58697408	      0.95015611	      6.15966108	     14.12534020	      0.24653369	     -1.25845836	      0.71211718	     -7.21638833	     -5.98865440	      3.92627032	      5.78690542	      8.36142202	      0.14593434	     16.57359158	      1.64931186	     -7.21638833	     -9.68092424	      1.70695284	     -2.89039019	     30.91057628	      9.93123322	     65.17680333	    119.10720229	    101.63277897	     48.00191696	      2.87829097	     60.87756517	    130.07269188	    102.15747228
      0.23333330	      7.90655407	     -1.04922805	     12.25820187	      0.76208685	      1.01555140	      0.00062429	     23.50288573	      0.88889744	      6.36128030	     14.23808093	      0.24850139	     -1.35434401	      0.70600742	     -7.25955761	     -6.06880936	      4.00880980	      5.54191278	      8.49514991	      0.14826834	     16.78613872	      1.78805198	     -7.25955761	     -9.76868988	      1.68862005	     -2.69406211	     31.07046954	     10.05142042	     64.99518334	    118.99654249	    101.40223915	     47.88743816	      2.79805748	     60.79673773	    130.21765295	    101.84662990
      0.25000000	      8.10995082	     -0.87514370	     12.20759762	      0.76177501	      1.01574335	      0.00064831	     23.29487291	      0.77144682	      6.48872345	     14.29853746	      0.24955656	     -1.43687326	      0.75229617	     -7.28126704	     -6.27744873	      4.12902324	      5.38181381	      8.53090643	      0.14889241	     16.96006818	      1.86106298	     -7.28126704	     -9.94386550	      1.56575278	     -2.39997959	     31.13955842	      9.98198874	     64.78841010	    119.03700583	     99.91568644	     47.97665825	      2.75803016	     60.90339759	    130.23251052	    100.32321431
      0.26666670	      8.15521413	     -0.82344882	     12.22564737	      0.76639092	      1.01649503	      0.00344684	     23.15884244	      0.75869525	      6.54344818	     14.30145104	      0.24960741	     -1.45570660	      0.77385411	     -7.28158164	     -6.37269974	      4.12788611	      5.36958029	      8.52877307	      0.14885517	     17.05214019	      1.85611939	     -7.28158164	     -9.84943416	      1.49571748	     -2.31589407	     31.04779918	     10.09760311	     64.82262079	    119.00678138	     99.92979935	     47.89587531	      2.71283643	     60.91148835	    130.17699453	    100.33526658
      0.28333330	      8.33035855	     -0.70683095	     12.04953611	      0.76624808	      1.01685040	      0.00361354	     22.82894403	      0.80545750	      6.97653395	     14.12700315	      0.24656272	     -1.52843882	      0.68566402	     -7.29741984	     -6.70865860	      4.15081996	      5.10529113	      8.34536638	      0.14565412	     17.38444258	      2.45536430	     -7.29741984	     -9.93874387	      1.43378087	     -2.17174015	     30.71039682	     10.49910244	     64.70910993	    118.42885126	    101.05410769	     47.52087947	      2.54769448	     60.57035374	    129.97738645	    101.29346591
      0.30000000	      8.44166480	     -0.60303628	     11.95387847	      0.76611346	      1.01699512	      0.00373068	     22.70151936	      0.77691178	      7.20146669	     14.13774988	      0.24675028	     -1.59458871	      0.70809080	     -7.31712026	     -6.91060204	      4.19124203	      5.01650476	      8.26460709	      0.14424461	     17.54832698	      2.71159735	     -7.31712026	    -10.01432567	      1.27138659	     -1.99156638	     30.60603769	     10.57374536	     64.68470068	    118.37206400	     99.90558081	     47.58369070	      2.57461730	     60.75268996	    129.74309306	    100.04354183
